# Blender 4.1.1
# www.blender.org
mtllib rash.mtl
o Cube
v -1.007083 -0.581481 0.583386
v -0.386262 0.550738 0.572033
v -1.103815 -0.668754 -0.365682
v -0.344181 0.642672 -0.502791
v 1.075589 -0.756133 0.620001
v 0.461432 0.591354 0.711352
v 1.001047 -0.828095 -0.586179
v 0.450781 0.639755 -0.512194
v -1.232008 -0.606508 0.364843
v 1.282060 -0.886368 0.262379
v 0.107681 -1.025089 -1.107833
v 0.030991 0.760698 -0.511052
v 0.257609 -1.018153 1.174857
v 0.033778 0.517005 0.672375
v -0.030413 0.818978 -0.019181
v -0.680818 -0.095191 0.776074
v -0.511127 -0.023626 -0.859707
v 0.713627 -0.061084 -0.770492
v 0.629125 -0.070012 0.943295
v 0.172563 -0.134450 1.082549
v 0.227355 -0.112205 -0.951719
v -0.645357 0.197153 0.611595
v -0.445454 0.250404 -0.766208
v 0.721535 0.259587 -0.596708
v 0.515428 0.200975 0.887565
v 0.918349 0.285521 0.250073
v -0.889467 0.178881 0.074936
v 0.174097 0.875432 -0.342398
v 0.553557 0.751854 -0.375049
v -0.415905 0.644280 -0.392675
v -0.873441 0.075356 -0.335757
v -0.965533 -0.169660 -0.453550
v 0.943392 -0.010843 -0.388169
v 0.915675 -0.313734 -0.600135
v 0.228263 -0.165530 -0.936469
v -0.962504 0.097751 0.349060
v -0.445887 0.709714 0.357581
v 0.171888 0.727411 0.478747
v 0.607704 0.650159 0.674864
v 0.847845 0.029358 0.637896
v 0.942888 -0.168965 0.705533
v 0.183896 -0.328018 1.120880
v -1.038894 -0.181431 0.505410
v -0.060228 0.298276 1.041400
v 0.080491 0.086341 1.146764
v -0.009658 0.509498 0.880332
v 0.303202 0.304219 1.020111
v -0.450795 0.301737 0.840853
v -0.282498 0.531410 0.815155
v 0.279155 0.534859 0.885550
v 0.377054 0.128198 1.056311
v -0.473829 0.111842 0.947691
v 0.187937 0.493913 -0.965961
v 0.218060 0.189064 -1.068220
v 0.102993 0.724663 -0.779019
v -0.243382 0.437963 -0.976133
v 0.520417 0.418371 -0.868820
v 0.359283 0.635302 -0.762189
v -0.182548 0.673593 -0.817901
v -0.279899 0.165115 -1.045635
v 0.464833 0.201322 -0.968053
v 0.751857 -0.367825 -0.781494
v 0.845568 -0.946156 -0.829217
v 0.995850 -1.114620 0.148767
v 0.731307 -0.456884 1.068802
v 0.767684 -1.129393 1.041363
v 0.863407 0.420779 -0.371543
v 0.674716 0.401661 0.676870
v 1.000507 0.174243 0.265405
v 1.369110 -0.144346 0.226002
v 1.403787 -0.641872 0.238012
v 1.222000 0.110428 0.240169
v 1.137168 -0.237601 -0.377140
v 1.201477 -0.134351 0.554072
v 1.222540 -0.604447 -0.367186
v 1.286684 -0.610518 0.493071
v 1.164885 -0.021577 -0.225964
v 1.069338 0.007095 0.505833
v -0.908304 -1.150090 0.488051
v -0.469535 -0.959473 1.132403
v -0.718375 -0.366397 -0.772611
v -0.872450 -0.948364 -0.748969
v -0.557241 -0.513551 1.121032
v -0.591393 0.379679 -0.343256
v -0.717739 0.369461 0.406710
v -0.980481 0.169306 0.014782
v -1.271413 -0.051170 0.162441
v -1.336153 -0.374751 0.274516
v -1.178625 0.111131 0.055278
v -1.215208 -0.108531 0.362552
v -1.169263 -0.101159 -0.238032
v -1.195285 -0.359077 0.411387
v -1.255867 -0.413735 -0.183001
v -1.111587 0.052291 -0.164260
v -1.167366 0.066317 0.264632
v -0.193604 0.782232 -0.216255
v 0.513860 0.644103 -0.426336
v 0.645805 0.748882 0.560173
v -0.150540 0.697596 0.433728
v 0.087652 0.904058 -0.038448
v 0.876169 0.232463 -0.440109
v 0.652835 0.218930 0.845540
v 0.895007 0.460073 0.202423
v 0.742755 1.104182 0.015636
v 0.749623 0.953830 0.413603
v 0.693184 1.044616 -0.191092
v 0.408133 1.137738 0.014848
v 0.902091 0.866098 0.162218
v 0.461022 1.120224 -0.171115
v 0.459671 1.029662 0.331278
v 0.882757 0.842058 -0.188947
v 0.767311 0.830361 0.452494
v -0.752205 0.200151 0.534320
v -0.415905 0.644280 0.473435
v 0.053820 0.610469 0.591123
v -0.456242 0.659083 -0.316085
v 0.056407 0.783394 -0.392675
v -0.209953 0.832817 -0.005493
v -0.610039 0.190550 -0.616735
v -0.835588 0.344077 0.098689
v -0.674775 0.947748 0.046147
v -0.635483 0.850673 -0.239756
v -0.641802 0.860166 0.335544
v -0.436500 0.990399 -0.016868
v -0.874448 0.726754 0.099564
v -0.797389 0.731691 0.322171
v -0.396158 0.898583 0.281367
v -0.438972 0.946686 -0.153246
v -0.758085 0.687393 -0.236472
v -0.797010 -0.243978 -0.729375
v -0.812164 -1.149993 -0.415952
v 0.003806 -1.149927 -0.804172
v 0.841301 -0.243978 -0.729375
v 0.652220 -1.152291 -0.637840
v 0.229407 -0.210247 -0.955322
v 0.188340 -0.343930 -1.147904
v 0.101078 -0.888066 -1.257235
v -0.491093 -0.415872 -1.016925
v -0.471413 -0.779932 -1.002645
v 0.501831 -0.438960 -1.061234
v 0.584020 -0.747182 -1.091046
v -1.134383 -1.070044 0.408732
v -0.530597 -0.797492 1.132725
v 0.106472 -1.070044 -0.993590
v -0.910196 -1.070044 -0.635591
v 1.185560 -1.028826 0.246110
v 0.885139 -1.070044 -0.703503
v 0.246269 -0.788865 1.298108
v 0.816579 -0.833606 1.079959
v 0.300238 -1.335944 0.173921
v -0.318644 -1.336041 0.327449
v 0.554848 -1.300570 0.138679
v 0.080717 -1.279672 -0.284596
v 0.325364 -1.339529 0.499205
v -0.168456 -1.276219 0.496337
v -0.289498 -1.279739 -0.091582
v 0.382917 -1.282036 -0.218730
v 0.510244 -1.282127 0.327505
v 0.868973 -0.212299 0.807670
v 0.993319 -0.777485 0.735432
v -0.717904 -0.860462 0.903128
v -0.797010 -0.283073 0.762898
v 0.191639 -0.547645 1.301827
v 0.471027 -1.209784 0.910407
v 0.884460 -1.152381 0.553648
v -0.596809 -1.146473 0.865196
vn 0.7074 -0.0159 -0.7067
vn 0.4140 -0.6999 -0.5821
vn 0.8957 0.1225 0.4274
vn 0.5431 -0.7749 0.3233
vn -0.7233 0.2408 -0.6472
vn -0.0644 -0.6645 -0.7445
vn -0.8354 0.1470 0.5297
vn -0.5029 -0.8149 0.2881
vn 0.9075 0.1993 -0.3697
vn -0.8611 0.4839 -0.1562
vn -0.0069 0.6855 0.7280
vn 0.0282 -0.9878 0.1529
vn -0.0345 0.5827 -0.8120
vn 0.0962 -0.9115 -0.3999
vn 0.2433 -0.9661 -0.0868
vn 0.5548 -0.2408 -0.7964
vn 0.4803 0.0003 0.8771
vn -0.5822 -0.1002 0.8068
vn -0.4391 -0.1222 -0.8901
vn -0.0383 0.0797 -0.9961
vn -0.1149 0.3073 0.9446
vn 0.6579 -0.4592 -0.5970
vn 0.7397 -0.4231 0.5232
vn -0.7270 -0.4314 0.5342
vn -0.4816 -0.3795 -0.7900
vn -0.9290 -0.3149 -0.1943
vn 0.6863 -0.7269 0.0266
vn 0.2530 -0.6964 0.6716
vn -0.2211 -0.4069 0.8863
vn 0.5688 -0.7344 0.3704
vn 0.5504 -0.7045 0.4480
vn 0.7219 -0.2912 0.6277
vn -0.7808 -0.4298 0.4534
vn -0.7698 -0.1585 0.6183
vn -0.0856 -0.0150 0.9962
vn 0.4804 -0.7441 -0.4642
vn 0.1917 -0.4687 -0.8623
vn 0.3548 -0.7716 -0.5280
vn -0.4120 -0.5509 -0.7258
vn -0.6740 -0.5084 -0.5359
vn -0.6632 -0.2844 -0.6923
vn -0.0254 -0.4585 -0.8883
vn 0.6060 -0.2860 -0.7423
vn 0.1887 -0.4481 -0.8738
vn 0.0566 -0.0259 -0.9981
vn 0.1109 -0.8226 -0.5577
vn -0.3091 -0.4640 -0.8301
vn 0.6160 -0.4815 -0.6235
vn 0.3269 -0.8087 -0.4890
vn -0.1858 -0.7790 -0.5988
vn -0.4082 -0.1921 -0.8925
vn 0.5281 -0.0605 -0.8470
vn -0.1546 -0.4781 0.8646
vn -0.1472 0.0523 0.9877
vn -0.0863 -0.8821 0.4631
vn 0.4426 -0.4527 0.7740
vn -0.6354 -0.4612 0.6194
vn -0.4701 -0.7820 0.4092
vn 0.4131 -0.7550 0.5092
vn 0.3705 0.0282 0.9284
vn -0.5072 -0.0381 0.8610
vn -0.6319 -0.2265 0.7412
vn -0.6492 0.2870 0.7044
vn -0.4380 0.8983 -0.0356
vn -0.5190 -0.3519 -0.7790
vn -0.4895 0.6422 -0.5899
vn -0.7761 -0.2423 0.5822
vn -0.8652 -0.2237 -0.4487
vn -0.6586 -0.7305 -0.1806
vn -0.9569 -0.2843 -0.0587
vn -0.9761 0.2031 -0.0778
vn -0.6448 -0.7602 -0.0789
vn -0.7509 -0.2750 0.6004
vn -0.6771 -0.2888 -0.6768
vn -0.8649 0.1237 0.4864
vn -0.7614 0.1504 -0.6306
vn -0.6431 -0.6400 0.4205
vn -0.4747 -0.6646 -0.5771
vn 0.4545 0.8339 -0.3132
vn 0.3320 0.5276 -0.7820
vn 0.5524 -0.2318 0.8007
vn 0.6258 0.2758 0.7296
vn 0.4746 -0.3084 -0.8244
vn 0.7984 -0.3427 0.4950
vn 0.7715 -0.3346 -0.5412
vn 0.3750 -0.9197 0.1166
vn 0.9338 -0.3511 -0.0683
vn 0.9719 0.0545 -0.2291
vn 0.6493 -0.7559 0.0838
vn 0.6775 -0.3569 -0.6431
vn 0.7844 -0.3049 0.5400
vn 0.6972 -0.0771 -0.7128
vn 0.9218 0.1012 0.3741
vn 0.6117 -0.6551 0.4434
vn 0.5544 -0.7145 -0.4268
vn -0.0233 -0.9198 0.3917
vn -0.3712 -0.5542 0.7450
vn -0.2405 -0.5316 -0.8122
vn -0.0845 -0.8782 -0.4707
vn 0.5752 -0.8172 -0.0371
vn -0.8310 -0.3399 0.4403
vn -0.5550 -0.3530 -0.7533
vn -0.9803 -0.0856 -0.1782
vn -0.5240 -0.8513 -0.0252
vn -0.4123 -0.6963 -0.5875
vn -0.4176 -0.6906 0.5905
vn 0.2785 -0.9569 -0.0817
vn -0.9437 -0.2916 -0.1560
vn 0.0945 -0.8497 0.5188
vn 0.2193 -0.8116 -0.5415
vn -0.8245 -0.3223 0.4651
vn -0.7458 -0.2701 -0.6090
vn 0.6595 -0.4924 -0.5681
vn 0.3606 -0.6915 -0.6260
vn 0.1604 -0.7808 -0.6039
vn 0.3165 -0.5588 0.7666
vn 0.1415 -0.9183 0.3697
vn -0.3468 -0.9373 -0.0347
vn 0.7027 -0.5010 0.5052
vn 0.9885 -0.1487 0.0262
vn 0.4870 -0.8733 0.0140
vn 0.3461 -0.5912 0.7285
vn 0.2778 -0.6136 -0.7392
vn -0.1744 -0.9836 0.0460
vn 0.9633 -0.2681 0.0107
vn 0.6678 -0.2999 -0.6812
vn -0.1856 -0.8068 -0.5609
vn -0.1342 -0.8298 0.5417
vn 0.7210 -0.1833 0.6682
vn 0.6526 -0.2145 0.7267
vn 0.2665 0.9495 0.1657
vn 0.0397 0.9440 0.3275
vn -0.6993 -0.1530 0.6983
vn -0.2061 0.9419 0.2653
vn -0.1132 -0.5619 0.8194
vn -0.0471 -0.5249 0.8499
vn 0.0186 0.2505 0.9679
vn 0.4079 -0.4530 0.7927
vn 0.4488 0.1800 0.8753
vn -0.4830 -0.4121 0.7726
vn -0.5272 0.1207 0.8411
vn 0.8107 0.5238 -0.2614
vn 0.5223 0.1680 -0.8360
vn -0.0195 0.8465 0.5320
vn 0.6169 0.6028 0.5061
vn -0.7745 0.6136 -0.1541
vn -0.6199 0.6277 0.4710
vn -0.0889 0.1241 -0.9883
vn -0.6671 0.1134 -0.7363
vn -0.0604 0.9979 0.0251
vn 0.1488 0.9872 -0.0575
vn -0.2620 0.9640 0.0454
vn 0.0159 0.9809 0.1940
vn -0.0942 0.9811 -0.1687
vn 0.0916 0.9708 -0.2219
vn 0.1386 0.9812 0.1346
vn -0.1597 0.9727 0.1682
vn -0.2846 0.9558 -0.0732
vn -0.6955 -0.2699 -0.6659
vn -0.8568 0.1595 -0.4905
vn 0.7345 0.2021 -0.6478
vn 0.6089 -0.2548 -0.7512
vn -0.0327 -0.3315 -0.9429
vn -0.0762 0.9417 -0.3278
vn -0.5523 0.7905 -0.2646
vn 0.3857 0.7573 -0.5269
vt 0.754258 0.549858
vt 0.891807 0.535138
vt 0.606550 0.286132
vt 0.608492 0.414241
vt 0.623950 0.516371
vt 0.691484 0.516777
vt 0.474352 0.763884
vt 0.530209 0.763354
vt 0.152671 0.724349
vt 0.147038 0.660874
vt 0.755583 0.726746
vt 0.760429 0.650069
vt 0.557114 0.091526
vt 0.558930 0.027514
vt 0.355230 0.530237
vt 0.356103 0.661839
vt 0.692004 0.662437
vt 0.872505 0.711712
vt 0.154541 0.526952
vt 0.543340 0.509682
vt 0.543163 0.664872
vt 0.297255 0.526269
vt 0.472089 0.975179
vt 0.474489 0.810340
vt 0.530985 0.483957
vt 0.467509 0.486895
vt 0.436349 0.429492
vt 0.436298 0.487993
vt 0.348128 0.742472
vt 0.375000 0.822592
vt 0.412705 0.831811
vt 0.425325 0.769630
vt 0.401864 0.210372
vt 0.402409 0.079505
vt 0.454078 0.720528
vt 0.394526 0.719935
vt 0.381317 0.965541
vt 0.418905 0.964881
vt 0.430780 0.537051
vt 0.487714 0.543579
vt 0.385948 0.268378
vt 0.436191 0.269770
vt 0.482817 0.202379
vt 0.452844 0.205675
vt 0.465984 0.424797
vt 0.601857 0.766027
vt 0.480478 0.048622
vt 0.482309 0.107741
vt 0.495638 0.665792
vt 0.600902 0.956941
vt 0.532677 0.971621
vt 0.394902 0.663040
vt 0.395345 0.530729
vt 0.601525 0.479374
vt 0.625000 0.500000
vt 0.625000 0.427408
vt 0.625000 0.250000
vt 0.527413 0.272683
vt 0.536083 0.250000
vt 0.447167 0.250000
vt 0.470520 0.273917
vt 0.447167 0.500000
vt 0.536083 0.500000
vt 0.447167 0.427408
vt 0.536083 1.000000
vt 0.625000 1.000000
vt 0.625000 0.822592
vt 0.603343 0.821209
vt 0.625000 0.750000
vt 0.536083 0.750000
vt 0.447167 0.750000
vt 0.447167 0.822592
vt 0.447167 1.000000
vt 0.536083 0.822592
vt 0.536083 0.427408
vt 0.375000 0.500000
vt 0.375000 0.662408
vt 0.375000 0.750000
vt 0.493316 0.721312
vt 0.536083 0.662408
vt 0.447167 0.662408
vt 0.401465 0.037138
vt 0.375000 0.000000
vt 0.375000 0.087592
vt 0.375000 0.250000
vt 0.428904 0.042199
vt 0.447167 0.000000
vt 0.536083 0.000000
vt 0.536083 0.087592
vt 0.447167 0.087592
vt 0.697592 0.500000
vt 0.621156 0.742260
vt 0.697592 0.750000
vt 0.691989 0.744575
vt 0.697592 0.662408
vt 0.545272 0.743479
vt 0.625000 0.662408
vt 0.624888 0.038495
vt 0.625000 0.000000
vt 0.875000 0.750000
vt 0.875000 0.500000
vt 0.561346 0.215735
vt 0.617192 0.207208
vt 0.625000 0.087592
vt 0.875000 0.662408
vt 0.375000 0.427408
vt 0.385825 0.425627
vt 0.385868 0.490095
vt 0.125000 0.662408
vt 0.125000 0.750000
vt 0.302408 0.500000
vt 0.125000 0.500000
vt 0.314004 0.740681
vt 0.302408 0.750000
vt 0.352089 0.746273
vt 0.350584 0.720389
vt 0.168274 0.742272
vt 0.156937 0.753682
vt 0.302408 0.662408
vt 0.295989 0.732580
vt 0.375000 1.000000
s 1
f 96/1/96 128/1/128 122/2/122 116/2/116
f 4/3/4 59/3/59 55/4/55 12/4/12
f 29/5/29 106/5/106 109/6/109 28/6/28
f 19/7/19 51/7/51 47/8/47 25/8/25
f 166/9/166 155/9/155 151/10/151 79/10/79
f 99/11/99 127/11/127 124/12/124 118/12/118
f 120/13/120 125/13/125 126/14/126 85/14/85
f 134/15/134 157/15/157 152/16/152 64/16/64
f 28/6/28 109/6/109 107/17/107 100/17/100
f 37/18/37 123/18/123 127/11/127 99/11/99
f 79/10/79 151/10/151 156/19/156 131/19/131
f 67/20/67 111/20/111 106/5/106 29/5/29
f 103/21/103 108/21/108 111/20/111 67/20/67
f 132/22/132 153/22/153 157/15/157 134/15/134
f 16/23/16 52/23/52 45/24/45 20/24/20
f 24/25/24 57/25/57 61/26/61 18/26/18
f 135/27/135 136/27/136 140/28/140 62/28/62
f 149/29/149 148/30/148 163/31/163 65/32/65
f 3/33/3 93/33/93 88/34/88 9/34/9
f 41/35/41 74/35/74 76/36/76 5/36/5
f 148/30/148 143/37/143 83/38/83 163/31/163
f 34/39/34 73/39/73 77/40/77 33/40/33
f 82/41/82 139/41/139 138/42/138 81/42/81
f 31/43/31 94/43/94 91/44/91 32/44/32
f 18/26/18 61/26/61 54/45/54 21/45/21
f 25/8/25 47/8/47 50/46/50 6/46/6
f 36/47/36 95/47/95 89/48/89 86/48/86
f 33/40/33 77/40/77 72/49/72 69/49/69
f 2/50/2 49/50/49 48/51/48 22/51/22
f 10/52/10 71/52/71 75/53/75 7/53/7
f 8/54/8 58/54/58 57/25/57 24/25/24
f 32/44/32 91/44/91 93/33/93 3/33/3
f 8/54/8 97/55/97 117/56/117 12/4/12
f 12/4/12 117/56/117 30/57/30 4/3/4
f 23/58/23 119/59/119 130/60/130 17/61/17
f 18/26/18 133/62/133 101/63/101 24/25/24
f 17/61/17 130/60/130 35/64/35 21/45/21
f 21/45/21 35/64/35 133/62/133 18/26/18
f 4/3/4 30/57/30 119/59/119 23/58/23
f 24/25/24 101/63/101 97/55/97 8/54/8
f 22/51/22 113/65/113 114/66/114 2/50/2
f 2/50/2 114/66/114 115/67/115 14/68/14
f 14/68/14 115/67/115 39/69/39 6/46/6
f 25/8/25 102/70/102 159/71/159 19/7/19
f 19/7/19 159/71/159 42/72/42 20/24/20
f 20/24/20 42/72/42 162/73/162 16/23/16
f 16/23/16 162/73/162 113/65/113 22/51/22
f 6/46/6 39/69/39 102/70/102 25/8/25
f 44/74/44 48/51/48 49/50/49 46/68/46
f 47/8/47 44/74/44 46/68/46 50/46/50
f 51/7/51 45/24/45 44/74/44 47/8/47
f 45/24/45 52/23/52 48/51/48 44/74/44
f 14/68/14 46/68/46 49/50/49 2/50/2
f 22/51/22 48/51/48 52/23/52 16/23/16
f 20/24/20 45/24/45 51/7/51 19/7/19
f 6/46/6 50/46/50 46/68/46 14/68/14
f 53/75/53 57/25/57 58/54/58 55/4/55
f 56/58/56 53/75/53 55/4/55 59/3/59
f 60/61/60 54/45/54 53/75/53 56/58/56
f 54/45/54 61/26/61 57/25/57 53/75/53
f 23/58/23 56/58/56 59/3/59 4/3/4
f 21/45/21 54/45/54 60/61/60 17/61/17
f 17/61/17 60/61/60 56/58/56 23/58/23
f 12/4/12 55/4/55 58/54/58 8/54/8
f 34/39/34 133/62/133 147/76/147 7/53/7
f 7/53/7 147/76/147 146/77/146 10/52/10
f 5/36/5 160/78/160 159/71/159 41/35/41
f 10/52/10 146/77/146 160/78/160 5/36/5
f 33/40/33 101/63/101 133/62/133 34/39/34
f 41/35/41 159/71/159 102/70/102 40/79/40
f 69/49/69 26/80/26 101/63/101 33/40/33
f 40/79/40 102/70/102 26/80/26 69/49/69
f 75/53/75 71/52/71 70/81/70 73/39/73
f 71/52/71 76/36/76 74/35/74 70/81/70
f 73/39/73 70/81/70 72/49/72 77/40/77
f 70/81/70 74/35/74 78/79/78 72/49/72
f 7/53/7 75/53/75 73/39/73 34/39/34
f 69/49/69 72/49/72 78/79/78 40/79/40
f 40/79/40 78/79/78 74/35/74 41/35/41
f 5/36/5 76/36/76 71/52/71 10/52/10
f 1/82/1 161/83/161 142/84/142 9/34/9
f 3/33/3 145/85/145 130/60/130 32/44/32
f 9/34/9 142/84/142 145/85/145 3/33/3
f 43/86/43 162/87/162 161/83/161 1/82/1
f 32/44/32 130/60/130 119/59/119 31/43/31
f 36/47/36 113/88/113 162/87/162 43/86/43
f 86/48/86 27/89/27 113/88/113 36/47/36
f 31/43/31 119/59/119 27/89/27 86/48/86
f 92/82/92 88/34/88 87/90/87 90/86/90
f 88/34/88 93/33/93 91/44/91 87/90/87
f 90/86/90 87/90/87 89/48/89 95/47/95
f 87/90/87 91/44/91 94/43/94 89/48/89
f 9/34/9 88/34/88 92/82/92 1/82/1
f 86/48/86 89/48/89 94/43/94 31/43/31
f 43/86/43 90/86/90 95/47/95 36/47/36
f 1/82/1 92/82/92 90/86/90 43/86/43
f 28/6/28 117/91/117 97/55/97 29/5/29
f 98/92/98 39/69/39 115/93/115 38/94/38
f 100/17/100 15/95/15 117/91/117 28/6/28
f 38/94/38 115/93/115 15/95/15 100/17/100
f 29/5/29 97/55/97 101/63/101 67/20/67
f 68/96/68 102/70/102 39/69/39 98/92/98
f 67/20/67 101/63/101 26/80/26 103/21/103
f 103/21/103 26/80/26 102/70/102 68/96/68
f 108/21/108 112/96/112 105/92/105 104/97/104
f 111/20/111 108/21/108 104/97/104 106/5/106
f 106/5/106 104/97/104 107/17/107 109/6/109
f 104/97/104 105/92/105 110/94/110 107/17/107
f 68/96/68 112/96/112 108/21/108 103/21/103
f 98/92/98 105/92/105 112/96/112 68/96/68
f 100/17/100 107/17/107 110/94/110 38/94/38
f 38/94/38 110/94/110 105/92/105 98/92/98
f 37/98/37 114/99/114 113/88/113 85/14/85
f 99/11/99 115/93/115 114/100/114 37/18/37
f 116/2/116 30/101/30 117/91/117 96/1/96
f 96/1/96 117/91/117 15/95/15 118/12/118
f 118/12/118 15/95/15 115/93/115 99/11/99
f 84/102/84 119/59/119 30/57/30 116/103/116
f 85/14/85 113/88/113 27/89/27 120/13/120
f 120/13/120 27/89/27 119/59/119 84/102/84
f 125/13/125 129/102/129 122/103/122 121/104/121
f 124/12/124 127/11/127 123/18/123 121/105/121
f 128/1/128 124/12/124 121/105/121 122/2/122
f 126/14/126 125/13/125 121/104/121 123/98/123
f 85/14/85 126/14/126 123/98/123 37/98/37
f 84/102/84 129/102/129 125/13/125 120/13/120
f 116/103/116 122/103/122 129/102/129 84/102/84
f 118/12/118 124/12/124 128/1/128 96/1/96
f 81/42/81 130/60/130 145/85/145 82/41/82
f 82/41/82 145/85/145 144/106/144 11/107/11
f 63/108/63 147/76/147 133/62/133 62/28/62
f 11/107/11 144/106/144 147/76/147 63/108/63
f 135/27/135 35/64/35 130/60/130 81/42/81
f 62/28/62 133/62/133 35/64/35 135/27/135
f 139/41/139 137/107/137 136/27/136 138/42/138
f 137/107/137 141/108/141 140/28/140 136/27/136
f 63/108/63 141/108/141 137/107/137 11/107/11
f 11/107/11 137/107/137 139/41/139 82/41/82
f 81/42/81 138/42/138 136/27/136 135/27/135
f 62/28/62 140/28/140 141/108/141 63/108/63
f 79/10/79 142/109/142 161/110/161 166/9/166
f 132/22/132 144/111/144 145/112/145 131/19/131
f 64/16/64 146/77/146 147/76/147 134/15/134
f 13/113/13 148/114/148 149/29/149 66/115/66
f 131/19/131 145/112/145 142/109/142 79/10/79
f 165/116/165 160/78/160 146/77/146 64/16/64
f 134/15/134 147/76/147 144/111/144 132/22/132
f 80/117/80 143/118/143 148/114/148 13/113/13
f 150/119/150 154/120/154 158/116/158 152/16/152
f 153/22/153 150/119/150 152/16/152 157/15/157
f 156/19/156 151/10/151 150/119/150 153/22/153
f 151/10/151 155/9/155 154/120/154 150/119/150
f 164/120/164 154/120/154 155/9/155 166/9/166
f 64/16/64 152/16/152 158/116/158 165/116/165
f 165/116/165 158/116/158 154/120/154 164/120/164
f 131/19/131 156/19/156 153/22/153 132/22/132
f 65/32/65 159/71/159 160/78/160 149/29/149
f 143/37/143 161/121/161 162/73/162 83/38/83
f 163/31/163 42/72/42 159/71/159 65/32/65
f 83/38/83 162/73/162 42/72/42 163/31/163
f 66/115/66 165/116/165 164/120/164 13/113/13
f 13/113/13 164/120/164 166/9/166 80/117/80
f 80/117/80 166/9/166 161/110/161 143/118/143
f 149/29/149 160/78/160 165/116/165 66/115/66
